# winding-fixed guitar_neck1 (2026-07-07, outward normals, triangulated)
v 0.020419 0.217197 -0.008000
v -0.020419 0.217197 -0.008000
v 0.020419 0.217197 0.009300
v -0.020419 0.217197 0.009300
v 0.027908 -0.241803 0.009300
v -0.027908 -0.241803 0.009300
v 0.027908 -0.241803 -0.008000
v -0.027908 -0.241803 -0.008000
v -0.040989 0.255333 -0.001974
v 0.040989 0.255333 -0.001974
v -0.040989 0.255333 -0.016777
v 0.040989 0.255333 -0.016777
f 1 3 5
f 1 5 7
f 8 6 4
f 8 4 2
f 7 5 6
f 7 6 8
f 3 4 6
f 3 6 5
f 7 8 2
f 7 2 1
f 2 4 3
f 2 3 1
