# winding-fixed guitar_neck2 (2026-07-07, outward normals, triangulated)
v 0.020419 0.217197 -0.008000
v -0.020419 0.217197 -0.008000
v 0.020419 0.217197 0.009300
v -0.020419 0.217197 0.009300
v 0.027908 -0.241803 0.009300
v -0.027908 -0.241803 0.009300
v 0.027908 -0.241803 -0.008000
v -0.027908 -0.241803 -0.008000
v -0.040989 0.255333 -0.001974
v 0.040989 0.255333 -0.001974
v -0.040989 0.255333 -0.016777
v 0.040989 0.255333 -0.016777
f 10 12 11
f 10 11 9
f 12 11 4
f 12 4 3
f 1 2 9
f 1 9 10
f 10 12 3
f 10 3 1
f 2 4 11
f 2 11 9
f 1 3 4
f 1 4 2
